<?xml version="1.0" encoding="utf-8"?>
<!-- Generator: Adobe Illustrator 14.0.0, SVG Export Plug-In . SVG Version: 6.00 Build 43363)  -->
<!DOCTYPE svg PUBLIC "-//W3C//DTD SVG 1.1//EN" "http://www.w3.org/Graphics/SVG/1.1/DTD/svg11.dtd">
<svg version="1.1" id="Layer_1" xmlns="http://www.w3.org/2000/svg" xmlns:xlink="http://www.w3.org/1999/xlink" x="0px" y="0px"
	 width="203.029px" height="249.038px" viewBox="0 0 203.029 249.038" enable-background="new 0 0 203.029 249.038"
	 xml:space="preserve">
<g id="Train_1_">
	<path fill="#ABABAB" d="M189.377,146.676l0.005,19.965l-21.731-0.137c-48.664,0.014-97.355-0.232-146.025,0.137
		c-0.277-24.311,0.074-48.78-0.066-73.112l0.01-1.358c-0.186-10.23,3.194-20.017,6.323-29.606
		c4.992-13.21,17.569-25.229,32.432-24.71l-0.146,0.022c30.146-0.009,60.298,0.132,90.444-0.022
		c14.862-0.519,27.439,11.5,32.44,24.71c3.125,9.589,6.504,19.375,6.314,29.606C189.329,110.333,189.201,128.497,189.377,146.676"/>
	<path fill="#ABABAB" d="M21.225,171.985c44.666,0.435,89.337-0.066,134.003,0.232c11.456,0.123,22.957-0.488,34.378,0.712
		c-0.496,14.198-4.324,28.67-13.271,39.925c-2.025,2.553-5.682,1.818-8.512,2.162c-41.59-0.186-83.176,0.109-124.748-0.105
		c-6.441,0.668-10.489-4.971-12.92-10.086C25.36,194.489,21.95,183.388,21.225,171.985z"/>
	<path fill="#ABABAB" d="M33.811,87.803l143.975-0.347v0.119c0-22.166-12.679-40.104-28.346-40.104h-1.23l-86.053,0.229
		C46.489,47.698,33.811,65.637,33.811,87.803z"/>
	<rect x="102.827" y="50.177" fill="#ABABAB" width="5.849" height="32.999"/>
	<path fill="#FFFFFF" stroke="#0145FD" stroke-width="2" d="M52.084,146.676c0,7.08-5.74,12.823-12.819,12.823
		c-7.089,0-12.823-5.743-12.823-12.823c0-7.084,5.734-12.823,12.823-12.823C46.344,133.853,52.084,139.592,52.084,146.676z"/>
	<path fill="none" stroke="#BBBDBF" d="M183.357,146.676c0,7.08-5.735,12.823-12.819,12.823s-12.823-5.743-12.823-12.823
		c0-7.084,5.739-12.823,12.823-12.823S183.357,139.592,183.357,146.676z"/>
	<polygon fill="#ABABAB" points="160.475,14.744 137.623,3.604 137.574,3.7 137.574,3.665 74.521,3.665 74.496,3.604 74.368,3.665 
		74.28,3.665 74.28,3.709 51.64,14.744 53.837,19.244 74.28,9.277 74.28,9.971 74.28,34.901 81.088,34.901 81.088,9.971 
		130.768,9.971 130.768,34.901 137.574,34.901 137.574,9.971 137.574,9.154 158.277,19.244 	"/>
	<polygon fill="#ABABAB" points="162.236,249.038 167.146,244.09 145.234,219.555 140.326,224.503 144.487,229.162 68.15,229.162 
		72.316,224.503 67.407,219.555 45.5,244.09 50.404,249.038 62.767,235.196 149.875,235.196 	"/>
</g>
<g id="Train">
	<path fill="#0180FD" d="M184.873,143.073l0.004,19.965l-21.73-0.137c-48.665,0.014-97.356-0.232-146.025,0.137
		c-0.277-24.311,0.074-48.78-0.066-73.112l0.009-1.358c-0.185-10.23,3.194-20.017,6.323-29.606
		c4.992-13.21,17.57-25.229,32.432-24.71l-0.145,0.022c30.146-0.009,60.297,0.132,90.443-0.022
		c14.863-0.519,27.439,11.5,32.441,24.71c3.124,9.589,6.504,19.375,6.314,29.606C184.824,106.73,184.697,124.893,184.873,143.073"/>
	<path fill="#0180FD" d="M16.721,168.381c44.666,0.435,89.336-0.066,134.002,0.232c11.457,0.123,22.957-0.488,34.379,0.712
		c-0.496,14.198-4.324,28.67-13.271,39.925c-2.025,2.553-5.682,1.818-8.512,2.162c-41.59-0.186-83.176,0.109-124.748-0.105
		c-6.442,0.668-10.49-4.971-12.92-10.086C20.855,190.885,17.445,179.785,16.721,168.381z"/>
	<path fill="#FFFFFF" d="M29.307,84.199l143.974-0.347v0.119c0-22.166-12.679-40.104-28.345-40.104h-1.23l-86.054,0.229
		C41.984,44.095,29.307,62.033,29.307,84.199z"/>
	<rect x="98.322" y="46.573" fill="#0180FD" width="5.85" height="32.999"/>
	<path fill="#FFFFFF" stroke="#0145FD" stroke-width="2" d="M47.579,143.073c0,7.08-5.739,12.823-12.819,12.823
		c-7.088,0-12.822-5.743-12.822-12.823c0-7.084,5.734-12.823,12.822-12.823C41.84,130.25,47.579,135.989,47.579,143.073z"/>
	<path fill="#FFFFFF" stroke="#0145FD" stroke-width="2" d="M178.853,143.073c0,7.08-5.735,12.823-12.819,12.823
		s-12.822-5.743-12.822-12.823c0-7.084,5.738-12.823,12.822-12.823S178.853,135.989,178.853,143.073z"/>
	<polygon fill="#0180FD" points="155.971,11.14 133.119,0 133.07,0.097 133.07,0.062 70.018,0.062 69.991,0 69.863,0.062 
		69.775,0.062 69.775,0.105 47.135,11.14 49.332,15.64 69.775,5.673 69.775,6.368 69.775,31.298 76.583,31.298 76.583,6.368 
		126.264,6.368 126.264,31.298 133.07,31.298 133.07,6.368 133.07,5.55 153.773,15.64 	"/>
	<polygon fill="#0180FD" points="157.732,245.434 162.641,240.487 140.73,215.952 135.821,220.9 139.982,225.558 63.646,225.558 
		67.812,220.9 62.902,215.952 40.996,240.487 45.9,245.434 58.262,231.592 145.371,231.592 	"/>
</g>
</svg>
